<?xml version="1.0" encoding="UTF-8" standalone="no"?>
<!DOCTYPE svg PUBLIC "-//W3C//DTD SVG 1.1//EN"
 "http://www.w3.org/Graphics/SVG/1.1/DTD/svg11.dtd">
<!-- Generated by graphviz version 2.43.0 (0)
 -->
<!-- Title: ProjectStructure Pages: 1 -->
<svg width="1477pt" height="260pt"
 viewBox="0.00 0.00 1476.50 260.00" xmlns="http://www.w3.org/2000/svg" xmlns:xlink="http://www.w3.org/1999/xlink">
<g id="graph0" class="graph" transform="scale(1 1) rotate(0) translate(4 256)">
<title>ProjectStructure</title>
<polygon fill="white" stroke="transparent" points="-4,4 -4,-256 1472.5,-256 1472.5,4 -4,4"/>
<!-- root -->
<g id="node1" class="node">
<title>root</title>
<polygon fill="none" stroke="black" points="358,-252 355,-256 334,-256 331,-252 257,-252 257,-216 358,-216 358,-252"/>
<text text-anchor="middle" x="307.5" y="-230.3" font-family="Times,serif" font-size="14.00">project&#45;root</text>
</g>
<!-- public -->
<g id="node2" class="node">
<title>public</title>
<polygon fill="none" stroke="black" points="184.5,-180 181.5,-184 160.5,-184 157.5,-180 124.5,-180 124.5,-144 184.5,-144 184.5,-180"/>
<text text-anchor="middle" x="154.5" y="-158.3" font-family="Times,serif" font-size="14.00">public</text>
</g>
<!-- root&#45;&gt;public -->
<g id="edge15" class="edge">
<title>root&#45;&gt;public</title>
<path fill="none" stroke="black" d="M270.07,-215.88C247.06,-205.35 217.59,-191.87 194.17,-181.15"/>
<polygon fill="black" stroke="black" points="195.42,-177.87 184.87,-176.9 192.51,-184.24 195.42,-177.87"/>
</g>
<!-- src -->
<g id="node3" class="node">
<title>src</title>
<polygon fill="none" stroke="black" points="529.5,-180 526.5,-184 505.5,-184 502.5,-180 475.5,-180 475.5,-144 529.5,-144 529.5,-180"/>
<text text-anchor="middle" x="502.5" y="-158.3" font-family="Times,serif" font-size="14.00">src</text>
</g>
<!-- root&#45;&gt;src -->
<g id="edge16" class="edge">
<title>root&#45;&gt;src</title>
<path fill="none" stroke="black" d="M355.2,-215.88C389.29,-203.64 434.47,-187.42 465.76,-176.19"/>
<polygon fill="black" stroke="black" points="467.17,-179.4 475.4,-172.73 464.81,-172.81 467.17,-179.4"/>
</g>
<!-- index -->
<g id="node4" class="node">
<title>index</title>
<polygon fill="none" stroke="black" points="87,-108 0,-108 0,-72 93,-72 93,-102 87,-108"/>
<polyline fill="none" stroke="black" points="87,-108 87,-102 "/>
<polyline fill="none" stroke="black" points="93,-102 87,-102 "/>
<text text-anchor="middle" x="46.5" y="-86.3" font-family="Times,serif" font-size="14.00">index.html</text>
</g>
<!-- public&#45;&gt;index -->
<g id="edge17" class="edge">
<title>public&#45;&gt;index</title>
<path fill="none" stroke="black" d="M128.08,-143.88C114.09,-134.81 96.72,-123.55 81.61,-113.76"/>
<polygon fill="black" stroke="black" points="83.32,-110.69 73.02,-108.19 79.51,-116.57 83.32,-110.69"/>
</g>
<!-- styles -->
<g id="node5" class="node">
<title>styles</title>
<polygon fill="none" stroke="black" points="191.5,-108 111.5,-108 111.5,-72 197.5,-72 197.5,-102 191.5,-108"/>
<polyline fill="none" stroke="black" points="191.5,-108 191.5,-102 "/>
<polyline fill="none" stroke="black" points="197.5,-102 191.5,-102 "/>
<text text-anchor="middle" x="154.5" y="-86.3" font-family="Times,serif" font-size="14.00">styles.css</text>
</g>
<!-- public&#45;&gt;styles -->
<g id="edge18" class="edge">
<title>public&#45;&gt;styles</title>
<path fill="none" stroke="black" d="M154.5,-143.7C154.5,-135.98 154.5,-126.71 154.5,-118.11"/>
<polygon fill="black" stroke="black" points="158,-118.1 154.5,-108.1 151,-118.1 158,-118.1"/>
</g>
<!-- constants -->
<g id="node6" class="node">
<title>constants</title>
<polygon fill="none" stroke="black" points="311.5,-108 215.5,-108 215.5,-72 317.5,-72 317.5,-102 311.5,-108"/>
<polyline fill="none" stroke="black" points="311.5,-108 311.5,-102 "/>
<polyline fill="none" stroke="black" points="317.5,-102 311.5,-102 "/>
<text text-anchor="middle" x="266.5" y="-86.3" font-family="Times,serif" font-size="14.00">constants.js</text>
</g>
<!-- src&#45;&gt;constants -->
<g id="edge19" class="edge">
<title>src&#45;&gt;constants</title>
<path fill="none" stroke="black" d="M475.43,-152.97C439.52,-142.32 375.11,-123.22 327.27,-109.02"/>
<polygon fill="black" stroke="black" points="328.21,-105.65 317.63,-106.17 326.22,-112.37 328.21,-105.65"/>
</g>
<!-- main -->
<g id="node7" class="node">
<title>main</title>
<polygon fill="none" stroke="black" points="397.5,-108 335.5,-108 335.5,-72 403.5,-72 403.5,-102 397.5,-108"/>
<polyline fill="none" stroke="black" points="397.5,-108 397.5,-102 "/>
<polyline fill="none" stroke="black" points="403.5,-102 397.5,-102 "/>
<text text-anchor="middle" x="369.5" y="-86.3" font-family="Times,serif" font-size="14.00">main.js</text>
</g>
<!-- src&#45;&gt;main -->
<g id="edge20" class="edge">
<title>src&#45;&gt;main</title>
<path fill="none" stroke="black" d="M475.26,-146.67C456.73,-136.91 431.85,-123.82 410.88,-112.78"/>
<polygon fill="black" stroke="black" points="412.34,-109.59 401.86,-108.03 409.08,-115.79 412.34,-109.59"/>
</g>
<!-- router -->
<g id="node8" class="node">
<title>router</title>
<polygon fill="none" stroke="black" points="493,-108 422,-108 422,-72 499,-72 499,-102 493,-108"/>
<polyline fill="none" stroke="black" points="493,-108 493,-102 "/>
<polyline fill="none" stroke="black" points="499,-102 493,-102 "/>
<text text-anchor="middle" x="460.5" y="-86.3" font-family="Times,serif" font-size="14.00">router.js</text>
</g>
<!-- src&#45;&gt;router -->
<g id="edge21" class="edge">
<title>src&#45;&gt;router</title>
<path fill="none" stroke="black" d="M492.12,-143.7C487.24,-135.56 481.31,-125.69 475.92,-116.7"/>
<polygon fill="black" stroke="black" points="478.91,-114.88 470.76,-108.1 472.91,-118.48 478.91,-114.88"/>
</g>
<!-- core -->
<g id="node9" class="node">
<title>core</title>
<polygon fill="none" stroke="black" points="571.5,-108 568.5,-112 547.5,-112 544.5,-108 517.5,-108 517.5,-72 571.5,-72 571.5,-108"/>
<text text-anchor="middle" x="544.5" y="-86.3" font-family="Times,serif" font-size="14.00">core</text>
</g>
<!-- src&#45;&gt;core -->
<g id="edge22" class="edge">
<title>src&#45;&gt;core</title>
<path fill="none" stroke="black" d="M512.88,-143.7C517.76,-135.56 523.69,-125.69 529.08,-116.7"/>
<polygon fill="black" stroke="black" points="532.09,-118.48 534.24,-108.1 526.09,-114.88 532.09,-118.48"/>
</g>
<!-- data -->
<g id="node10" class="node">
<title>data</title>
<polygon fill="none" stroke="black" points="758.5,-108 755.5,-112 734.5,-112 731.5,-108 704.5,-108 704.5,-72 758.5,-72 758.5,-108"/>
<text text-anchor="middle" x="731.5" y="-86.3" font-family="Times,serif" font-size="14.00">data</text>
</g>
<!-- src&#45;&gt;data -->
<g id="edge23" class="edge">
<title>src&#45;&gt;data</title>
<path fill="none" stroke="black" d="M529.67,-152.7C570.73,-140.14 648.68,-116.32 694.76,-102.23"/>
<polygon fill="black" stroke="black" points="695.83,-105.56 704.37,-99.29 693.78,-98.87 695.83,-105.56"/>
</g>
<!-- modes -->
<g id="node11" class="node">
<title>modes</title>
<polygon fill="none" stroke="black" points="1004,-108 1001,-112 980,-112 977,-108 941,-108 941,-72 1004,-72 1004,-108"/>
<text text-anchor="middle" x="972.5" y="-86.3" font-family="Times,serif" font-size="14.00">modes</text>
</g>
<!-- src&#45;&gt;modes -->
<g id="edge24" class="edge">
<title>src&#45;&gt;modes</title>
<path fill="none" stroke="black" d="M529.8,-156.93C608.55,-145.21 836.48,-111.26 930.84,-97.21"/>
<polygon fill="black" stroke="black" points="931.5,-100.65 940.87,-95.71 930.46,-93.72 931.5,-100.65"/>
</g>
<!-- ui -->
<g id="node12" class="node">
<title>ui</title>
<polygon fill="none" stroke="black" points="1253.5,-108 1250.5,-112 1229.5,-112 1226.5,-108 1199.5,-108 1199.5,-72 1253.5,-72 1253.5,-108"/>
<text text-anchor="middle" x="1226.5" y="-86.3" font-family="Times,serif" font-size="14.00">ui</text>
</g>
<!-- src&#45;&gt;ui -->
<g id="edge25" class="edge">
<title>src&#45;&gt;ui</title>
<path fill="none" stroke="black" d="M529.56,-158.38C640.55,-147.65 1061.05,-107 1189.2,-94.61"/>
<polygon fill="black" stroke="black" points="1189.69,-98.08 1199.3,-93.63 1189.01,-91.11 1189.69,-98.08"/>
</g>
<!-- state.js -->
<g id="node13" class="node">
<title>state.js</title>
<polygon fill="none" stroke="black" points="162,-36 99,-36 99,0 168,0 168,-30 162,-36"/>
<polyline fill="none" stroke="black" points="162,-36 162,-30 "/>
<polyline fill="none" stroke="black" points="168,-30 162,-30 "/>
<text text-anchor="middle" x="133.5" y="-14.3" font-family="Times,serif" font-size="14.00">state.js</text>
</g>
<!-- core&#45;&gt;state.js -->
<g id="edge1" class="edge">
<title>core&#45;&gt;state.js</title>
<path fill="none" stroke="black" d="M517.39,-75.36C514.12,-74.07 510.77,-72.9 507.5,-72 368.07,-33.48 322.21,-69.81 178.51,-36.14"/>
<polygon fill="black" stroke="black" points="178.99,-32.65 168.45,-33.7 177.35,-39.45 178.99,-32.65"/>
</g>
<!-- storage.js -->
<g id="node14" class="node">
<title>storage.js</title>
<polygon fill="none" stroke="black" points="267,-36 186,-36 186,0 273,0 273,-30 267,-36"/>
<polyline fill="none" stroke="black" points="267,-36 267,-30 "/>
<polyline fill="none" stroke="black" points="273,-30 267,-30 "/>
<text text-anchor="middle" x="229.5" y="-14.3" font-family="Times,serif" font-size="14.00">storage.js</text>
</g>
<!-- core&#45;&gt;storage.js -->
<g id="edge2" class="edge">
<title>core&#45;&gt;storage.js</title>
<path fill="none" stroke="black" d="M517.35,-75.52C514.08,-74.2 510.75,-72.99 507.5,-72 413.62,-43.51 382.91,-58.52 282.92,-35.85"/>
<polygon fill="black" stroke="black" points="283.56,-32.41 273.02,-33.54 281.97,-39.22 283.56,-32.41"/>
</g>
<!-- rewards.js -->
<g id="node15" class="node">
<title>rewards.js</title>
<polygon fill="none" stroke="black" points="377.5,-36 291.5,-36 291.5,0 383.5,0 383.5,-30 377.5,-36"/>
<polyline fill="none" stroke="black" points="377.5,-36 377.5,-30 "/>
<polyline fill="none" stroke="black" points="383.5,-30 377.5,-30 "/>
<text text-anchor="middle" x="337.5" y="-14.3" font-family="Times,serif" font-size="14.00">rewards.js</text>
</g>
<!-- core&#45;&gt;rewards.js -->
<g id="edge3" class="edge">
<title>core&#45;&gt;rewards.js</title>
<path fill="none" stroke="black" d="M517.19,-75.98C513.95,-74.57 510.67,-73.22 507.5,-72 504.68,-70.92 441.98,-51.42 393.55,-36.38"/>
<polygon fill="black" stroke="black" points="394.35,-32.97 383.76,-33.34 392.28,-39.65 394.35,-32.97"/>
</g>
<!-- sampler.js -->
<g id="node16" class="node">
<title>sampler.js</title>
<polygon fill="none" stroke="black" points="485,-36 402,-36 402,0 491,0 491,-30 485,-36"/>
<polyline fill="none" stroke="black" points="485,-36 485,-30 "/>
<polyline fill="none" stroke="black" points="491,-30 485,-30 "/>
<text text-anchor="middle" x="446.5" y="-14.3" font-family="Times,serif" font-size="14.00">sampler.js</text>
</g>
<!-- core&#45;&gt;sampler.js -->
<g id="edge4" class="edge">
<title>core&#45;&gt;sampler.js</title>
<path fill="none" stroke="black" d="M520.53,-71.88C507.95,-62.89 492.37,-51.76 478.75,-42.03"/>
<polygon fill="black" stroke="black" points="480.74,-39.15 470.57,-36.19 476.67,-44.85 480.74,-39.15"/>
</g>
<!-- timer.js -->
<g id="node17" class="node">
<title>timer.js</title>
<polygon fill="none" stroke="black" points="574,-36 509,-36 509,0 580,0 580,-30 574,-36"/>
<polyline fill="none" stroke="black" points="574,-36 574,-30 "/>
<polyline fill="none" stroke="black" points="580,-30 574,-30 "/>
<text text-anchor="middle" x="544.5" y="-14.3" font-family="Times,serif" font-size="14.00">timer.js</text>
</g>
<!-- core&#45;&gt;timer.js -->
<g id="edge5" class="edge">
<title>core&#45;&gt;timer.js</title>
<path fill="none" stroke="black" d="M544.5,-71.7C544.5,-63.98 544.5,-54.71 544.5,-46.11"/>
<polygon fill="black" stroke="black" points="548,-46.1 544.5,-36.1 541,-46.1 548,-46.1"/>
</g>
<!-- tts.js -->
<g id="node18" class="node">
<title>tts.js</title>
<polygon fill="none" stroke="black" points="646.5,-36 598.5,-36 598.5,0 652.5,0 652.5,-30 646.5,-36"/>
<polyline fill="none" stroke="black" points="646.5,-36 646.5,-30 "/>
<polyline fill="none" stroke="black" points="652.5,-30 646.5,-30 "/>
<text text-anchor="middle" x="625.5" y="-14.3" font-family="Times,serif" font-size="14.00">tts.js</text>
</g>
<!-- core&#45;&gt;tts.js -->
<g id="edge6" class="edge">
<title>core&#45;&gt;tts.js</title>
<path fill="none" stroke="black" d="M564.52,-71.7C574.63,-62.97 587.04,-52.24 598.02,-42.75"/>
<polygon fill="black" stroke="black" points="600.43,-45.29 605.71,-36.1 595.85,-39.99 600.43,-45.29"/>
</g>
<!-- emoji_words.js -->
<g id="node19" class="node">
<title>emoji_words.js</title>
<polygon fill="none" stroke="black" points="786.5,-36 670.5,-36 670.5,0 792.5,0 792.5,-30 786.5,-36"/>
<polyline fill="none" stroke="black" points="786.5,-36 786.5,-30 "/>
<polyline fill="none" stroke="black" points="792.5,-30 786.5,-30 "/>
<text text-anchor="middle" x="731.5" y="-14.3" font-family="Times,serif" font-size="14.00">emoji_words.js</text>
</g>
<!-- data&#45;&gt;emoji_words.js -->
<g id="edge7" class="edge">
<title>data&#45;&gt;emoji_words.js</title>
<path fill="none" stroke="black" d="M731.5,-71.7C731.5,-63.98 731.5,-54.71 731.5,-46.11"/>
<polygon fill="black" stroke="black" points="735,-46.1 731.5,-36.1 728,-46.1 735,-46.1"/>
</g>
<!-- cvc_words.js -->
<g id="node20" class="node">
<title>cvc_words.js</title>
<polygon fill="none" stroke="black" points="912,-36 811,-36 811,0 918,0 918,-30 912,-36"/>
<polyline fill="none" stroke="black" points="912,-36 912,-30 "/>
<polyline fill="none" stroke="black" points="918,-30 912,-30 "/>
<text text-anchor="middle" x="864.5" y="-14.3" font-family="Times,serif" font-size="14.00">cvc_words.js</text>
</g>
<!-- data&#45;&gt;cvc_words.js -->
<g id="edge8" class="edge">
<title>data&#45;&gt;cvc_words.js</title>
<path fill="none" stroke="black" d="M758.74,-74.67C777.27,-64.91 802.15,-51.82 823.12,-40.78"/>
<polygon fill="black" stroke="black" points="824.92,-43.79 832.14,-36.03 821.66,-37.59 824.92,-43.79"/>
</g>
<!-- emoji.js -->
<g id="node21" class="node">
<title>emoji.js</title>
<polygon fill="none" stroke="black" points="1002.5,-36 936.5,-36 936.5,0 1008.5,0 1008.5,-30 1002.5,-36"/>
<polyline fill="none" stroke="black" points="1002.5,-36 1002.5,-30 "/>
<polyline fill="none" stroke="black" points="1008.5,-30 1002.5,-30 "/>
<text text-anchor="middle" x="972.5" y="-14.3" font-family="Times,serif" font-size="14.00">emoji.js</text>
</g>
<!-- modes&#45;&gt;emoji.js -->
<g id="edge9" class="edge">
<title>modes&#45;&gt;emoji.js</title>
<path fill="none" stroke="black" d="M972.5,-71.7C972.5,-63.98 972.5,-54.71 972.5,-46.11"/>
<polygon fill="black" stroke="black" points="976,-46.1 972.5,-36.1 969,-46.1 976,-46.1"/>
</g>
<!-- cvc.js -->
<g id="node22" class="node">
<title>cvc.js</title>
<polygon fill="none" stroke="black" points="1076.5,-36 1026.5,-36 1026.5,0 1082.5,0 1082.5,-30 1076.5,-36"/>
<polyline fill="none" stroke="black" points="1076.5,-36 1076.5,-30 "/>
<polyline fill="none" stroke="black" points="1082.5,-30 1076.5,-30 "/>
<text text-anchor="middle" x="1054.5" y="-14.3" font-family="Times,serif" font-size="14.00">cvc.js</text>
</g>
<!-- modes&#45;&gt;cvc.js -->
<g id="edge10" class="edge">
<title>modes&#45;&gt;cvc.js</title>
<path fill="none" stroke="black" d="M992.77,-71.7C1003,-62.97 1015.56,-52.24 1026.68,-42.75"/>
<polygon fill="black" stroke="black" points="1029.13,-45.26 1034.46,-36.1 1024.59,-39.94 1029.13,-45.26"/>
</g>
<!-- dom.js -->
<g id="node23" class="node">
<title>dom.js</title>
<polygon fill="none" stroke="black" points="1158.5,-36 1100.5,-36 1100.5,0 1164.5,0 1164.5,-30 1158.5,-36"/>
<polyline fill="none" stroke="black" points="1158.5,-36 1158.5,-30 "/>
<polyline fill="none" stroke="black" points="1164.5,-30 1158.5,-30 "/>
<text text-anchor="middle" x="1132.5" y="-14.3" font-family="Times,serif" font-size="14.00">dom.js</text>
</g>
<!-- ui&#45;&gt;dom.js -->
<g id="edge11" class="edge">
<title>ui&#45;&gt;dom.js</title>
<path fill="none" stroke="black" d="M1203.26,-71.7C1191.31,-62.8 1176.58,-51.82 1163.65,-42.2"/>
<polygon fill="black" stroke="black" points="1165.58,-39.27 1155.47,-36.1 1161.4,-44.88 1165.58,-39.27"/>
</g>
<!-- confetti.js -->
<g id="node24" class="node">
<title>confetti.js</title>
<polygon fill="none" stroke="black" points="1264.5,-36 1182.5,-36 1182.5,0 1270.5,0 1270.5,-30 1264.5,-36"/>
<polyline fill="none" stroke="black" points="1264.5,-36 1264.5,-30 "/>
<polyline fill="none" stroke="black" points="1270.5,-30 1264.5,-30 "/>
<text text-anchor="middle" x="1226.5" y="-14.3" font-family="Times,serif" font-size="14.00">confetti.js</text>
</g>
<!-- ui&#45;&gt;confetti.js -->
<g id="edge12" class="edge">
<title>ui&#45;&gt;confetti.js</title>
<path fill="none" stroke="black" d="M1226.5,-71.7C1226.5,-63.98 1226.5,-54.71 1226.5,-46.11"/>
<polygon fill="black" stroke="black" points="1230,-46.1 1226.5,-36.1 1223,-46.1 1230,-46.1"/>
</g>
<!-- overlay.js -->
<g id="node25" class="node">
<title>overlay.js</title>
<polygon fill="none" stroke="black" points="1366,-36 1289,-36 1289,0 1372,0 1372,-30 1366,-36"/>
<polyline fill="none" stroke="black" points="1366,-36 1366,-30 "/>
<polyline fill="none" stroke="black" points="1372,-30 1366,-30 "/>
<text text-anchor="middle" x="1330.5" y="-14.3" font-family="Times,serif" font-size="14.00">overlay.js</text>
</g>
<!-- ui&#45;&gt;overlay.js -->
<g id="edge13" class="edge">
<title>ui&#45;&gt;overlay.js</title>
<path fill="none" stroke="black" d="M1251.94,-71.88C1265.29,-62.89 1281.82,-51.76 1296.28,-42.03"/>
<polygon fill="black" stroke="black" points="1298.62,-44.68 1304.96,-36.19 1294.71,-38.87 1298.62,-44.68"/>
</g>
<!-- trophy.js -->
<g id="node26" class="node">
<title>trophy.js</title>
<polygon fill="none" stroke="black" points="1462.5,-36 1390.5,-36 1390.5,0 1468.5,0 1468.5,-30 1462.5,-36"/>
<polyline fill="none" stroke="black" points="1462.5,-36 1462.5,-30 "/>
<polyline fill="none" stroke="black" points="1468.5,-30 1462.5,-30 "/>
<text text-anchor="middle" x="1429.5" y="-14.3" font-family="Times,serif" font-size="14.00">trophy.js</text>
</g>
<!-- ui&#45;&gt;trophy.js -->
<g id="edge14" class="edge">
<title>ui&#45;&gt;trophy.js</title>
<path fill="none" stroke="black" d="M1253.69,-79.8C1282.79,-69.94 1330.55,-53.69 1380.75,-36.25"/>
<polygon fill="black" stroke="black" points="1382.18,-39.45 1390.48,-32.86 1379.88,-32.84 1382.18,-39.45"/>
</g>
</g>
</svg>
